<svg width="1277" height="838" viewBox="0 0 1277 838" fill="none" xmlns="http://www.w3.org/2000/svg">
<rect width="1277" height="838" rx="30" fill="black"/>
<path d="M738 381.5C738 371.283 746.283 363 756.5 363C766.717 363 775 371.283 775 381.5V484.5C775 494.717 766.717 503 756.5 503C746.283 503 738 494.717 738 484.5V381.5Z" fill="white"/>
<path d="M741 378C741 369.716 747.716 363 756 363H876V393H756C747.716 393 741 386.284 741 378Z" fill="white"/>
<path d="M364 378C364 369.716 370.716 363 379 363H523C531.284 363 538 369.716 538 378C538 386.284 531.284 393 523 393H379C370.716 393 364 386.284 364 378Z" fill="white"/>
<path d="M600.5 555.5C576.167 568.167 543.333 581.833 502 596.5L439 536C480.333 427 535.833 327.167 605.5 236.5L659.5 290C623.5 333.667 588.333 389 554 456C544 476 535 495.333 527 514C567 505 600.667 495 628 484V485C681 375.667 725.833 298.667 762.5 254L817.5 307.5C765.5 370.167 712 470.667 657 609L600.5 555.5Z" fill="#FF0000"/>
<path d="M551 378C551 369.716 557.716 363 566 363H710C718.284 363 725 369.716 725 378C725 386.284 718.284 393 710 393H566C557.716 393 551 386.284 551 378Z" fill="white"/>
<path d="M876 363C896.435 363 913 379.565 913 400V466C913 486.435 896.435 503 876 503V363Z" fill="white"/>
<path d="M738 488C738 479.716 744.716 473 753 473H876V503H753C744.716 503 738 496.284 738 488Z" fill="white"/>
<path d="M364 433C364 424.716 370.716 418 379 418H436C444.284 418 451 424.716 451 433C451 441.284 444.284 448 436 448H379C370.716 448 364 441.284 364 433Z" fill="white"/>
<path d="M364 488C364 479.716 370.716 473 379 473H523C531.284 473 538 479.716 538 488C538 496.284 531.284 503 523 503H379C370.716 503 364 496.284 364 488Z" fill="white"/>
<path d="M551 488C551 479.716 557.716 473 566 473H710C718.284 473 725 479.716 725 488C725 496.284 718.284 503 710 503H566C557.716 503 551 496.284 551 488Z" fill="white"/>
<path fill-rule="evenodd" clip-rule="evenodd" d="M569.5 363C559.283 363 551 371.283 551 381.5V429.5C551 439.717 559.283 448 569.5 448C579.717 448 588 439.717 588 429.5V417.9C585.718 417.437 584 415.419 584 413V398C584 395.581 585.718 393.563 588 393.1V381.5C588 371.283 579.717 363 569.5 363Z" fill="white"/>
<path d="M774 396C774 393.239 776.239 391 779 391H874C876.761 391 879 393.239 879 396V471C879 473.761 876.761 476 874 476H779C776.239 476 774 473.761 774 471V396Z" fill="black"/>
<path fill-rule="evenodd" clip-rule="evenodd" d="M551 433C551 424.716 557.716 418 566 418H706.5H710C718.284 418 725 424.716 725 433C725 433.56 724.969 434.113 724.909 434.658C724.969 435.264 725 435.878 725 436.5V484.5C725 494.717 716.717 503 706.5 503C696.283 503 688 494.717 688 484.5V472.9C690.282 472.437 692 470.419 692 468V453C692 450.581 690.282 448.563 688 448.1V448H687H567H566C557.716 448 551 441.284 551 433Z" fill="white"/>
</svg>
